<?xml version="1.0" encoding="UTF-8" standalone="no"?>
<!-- Generator: Adobe Illustrator 18.0.0, SVG Export Plug-In . SVG Version: 6.00 Build 0)  -->

<svg
   xmlns:dc="http://purl.org/dc/elements/1.1/"
   xmlns:cc="http://creativecommons.org/ns#"
   xmlns:rdf="http://www.w3.org/1999/02/22-rdf-syntax-ns#"
   xmlns:svg="http://www.w3.org/2000/svg"
   xmlns="http://www.w3.org/2000/svg"
   xmlns:sodipodi="http://sodipodi.sourceforge.net/DTD/sodipodi-0.dtd"
   xmlns:inkscape="http://www.inkscape.org/namespaces/inkscape"
   version="1.1"
   id="Capa_1"
   x="0px"
   y="0px"
   viewBox="0 0 493.497 493.497"
   style="enable-background:new 0 0 493.497 493.497;"
   xml:space="preserve"
   sodipodi:docname="icon-mail.svg"
   inkscape:version="0.92.5 (2060ec1f9f, 2020-04-08)"><metadata
   id="metadata39"><rdf:RDF><cc:Work
       rdf:about=""><dc:format>image/svg+xml</dc:format><dc:type
         rdf:resource="http://purl.org/dc/dcmitype/StillImage" /></cc:Work></rdf:RDF></metadata><defs
   id="defs37" /><sodipodi:namedview
   pagecolor="#ffffff"
   bordercolor="#666666"
   borderopacity="1"
   objecttolerance="10"
   gridtolerance="10"
   guidetolerance="10"
   inkscape:pageopacity="0"
   inkscape:pageshadow="2"
   inkscape:window-width="1920"
   inkscape:window-height="1016"
   id="namedview35"
   showgrid="false"
   inkscape:zoom="1.3526096"
   inkscape:cx="55.068442"
   inkscape:cy="250.78106"
   inkscape:window-x="0"
   inkscape:window-y="27"
   inkscape:window-maximized="1"
   inkscape:current-layer="Capa_1" />
<path
   d="M 441.22472,95.833027 H 53.180711 c -26.471519,0 -48.0055347,22.851853 -48.0055347,50.945803 v 234.39714 c 0,28.09285 21.5340157,50.94582 48.0055347,50.94582 H 441.22381 c 26.47152,0 48.00446,-22.85297 48.00446,-50.94582 V 146.77883 c 0,-28.09395 -21.53192,-50.945803 -48.00355,-50.945803 z m 16.00189,50.945803 v 234.39714 c 0,2.67925 -0.71097,5.12547 -1.75879,7.38036 L 342.33784,268.48735 457.19423,146.59582 c 0,0.0616 0.0323,0.12192 0.0323,0.18843 z M 37.178938,381.17493 v -234.3961 c 0,-0.0616 0.03227,-0.10717 0.03227,-0.18843 L 152.0676,268.48194 38.929758,388.54882 c -1.039208,-2.24776 -1.750767,-4.69287 -1.750767,-7.37315 z M 252.14133,316.18445 c -2.64034,2.80116 -7.23676,2.80116 -9.87726,0 L 66.643089,129.79691 H 427.77014 Z m -77.44608,-23.68158 44.94132,47.69531 c 7.36821,7.81836 17.15818,12.12168 27.56623,12.12168 10.40698,0 20.19787,-4.30332 27.56619,-12.12168 l 44.9433,-47.69531 99.54793,105.65503 H 75.137361 Z"
   id="path2"
   inkscape:connector-curvature="0"
   style="stroke-width:1.01045895" />
<g
   id="g4"
   transform="matrix(1,0,0,0.04952625,0,388.05847)">
</g>
<g
   id="g6"
   transform="matrix(1,0,0,0.04952625,0,388.05847)">
</g>
<g
   id="g8"
   transform="matrix(1,0,0,0.04952625,0,388.05847)">
</g>
<g
   id="g10"
   transform="matrix(1,0,0,0.04952625,0,388.05847)">
</g>
<g
   id="g12"
   transform="matrix(1,0,0,0.04952625,0,388.05847)">
</g>
<g
   id="g14"
   transform="matrix(1,0,0,0.04952625,0,388.05847)">
</g>
<g
   id="g16"
   transform="matrix(1,0,0,0.04952625,0,388.05847)">
</g>
<g
   id="g18"
   transform="matrix(1,0,0,0.04952625,0,388.05847)">
</g>
<g
   id="g20"
   transform="matrix(1,0,0,0.04952625,0,388.05847)">
</g>
<g
   id="g22"
   transform="matrix(1,0,0,0.04952625,0,388.05847)">
</g>
<g
   id="g24"
   transform="matrix(1,0,0,0.04952625,0,388.05847)">
</g>
<g
   id="g26"
   transform="matrix(1,0,0,0.04952625,0,388.05847)">
</g>
<g
   id="g28"
   transform="matrix(1,0,0,0.04952625,0,388.05847)">
</g>
<g
   id="g30"
   transform="matrix(1,0,0,0.04952625,0,388.05847)">
</g>
<g
   id="g32"
   transform="matrix(1,0,0,0.04952625,0,388.05847)">
</g>
</svg>